<svg width="193" height="70" viewBox="0 0 193 70" fill="none" xmlns="http://www.w3.org/2000/svg">
<rect x="0.5" y="0.5" width="192" height="69" rx="34.5" fill="#0B0C0E"/>
<rect x="0.5" y="0.5" width="192" height="69" rx="34.5" stroke="#0B0C0E"/>
<path d="M74.476 34.332C72.676 33.882 71.47 33.63 71.47 32.226C71.47 31.272 72.388 30.696 73.918 30.696C75.7 30.696 76.636 31.488 76.834 32.982H78.976C78.796 30.336 76.744 28.86 73.918 28.86C71.11 28.86 69.346 30.138 69.346 32.424C69.346 34.872 71.524 35.646 73.54 36.15C76.078 36.78 77.176 37.068 77.176 38.598C77.176 39.588 76.438 40.434 74.53 40.434C72.226 40.434 71.11 39.354 71.002 37.716H68.86C68.986 40.632 71.38 42.27 74.53 42.27C77.77 42.27 79.318 40.56 79.318 38.508C79.318 35.628 77.23 35.034 74.476 34.332ZM86.8386 32.802V38.4C86.8386 39.768 85.9026 40.65 84.4446 40.65C83.1486 40.65 82.6266 39.858 82.6266 38.616V32.802H80.7186V39.156C80.7186 41.262 82.0686 42.252 83.7786 42.252C85.3626 42.252 86.3166 41.532 86.8026 40.812H86.8386V42H88.7286V32.802H86.8386ZM95.2629 32.55C93.8409 32.55 92.9409 33.216 92.4549 33.918H92.4189V29.13H90.5289V42H92.4189V40.938H92.4549C92.9409 41.568 93.8409 42.27 95.2629 42.27C97.6209 42.27 99.3669 40.434 99.3669 37.41C99.3669 34.386 97.6209 32.55 95.2629 32.55ZM94.9389 40.722C93.3909 40.722 92.4369 39.444 92.4369 37.41C92.4369 35.358 93.3909 34.098 94.9389 34.098C96.5949 34.098 97.4769 35.61 97.4769 37.41C97.4769 39.21 96.5949 40.722 94.9389 40.722ZM110.841 32.55C109.419 32.55 108.519 33.252 107.835 34.134H107.799C107.421 33.144 106.647 32.55 105.351 32.55C103.965 32.55 103.101 33.27 102.615 33.99H102.579V32.802H100.689V42H102.579V36.402C102.579 35.034 103.389 34.152 104.649 34.152C105.963 34.152 106.215 34.944 106.215 36.186V42H108.123V36.402C108.123 35.034 108.915 34.152 110.193 34.152C111.489 34.152 111.741 34.944 111.741 36.186V42H113.649V35.646C113.649 33.666 112.695 32.55 110.841 32.55ZM116.464 31.254C117.022 31.254 117.544 30.894 117.544 30.246C117.544 29.598 117.022 29.256 116.464 29.256C115.942 29.256 115.402 29.598 115.402 30.246C115.402 30.894 115.942 31.254 116.464 31.254ZM115.528 32.802V42H117.418V32.802H115.528ZM123.731 34.35V32.802H122.003V29.904H120.095V32.802H118.763V34.35H120.095V39.498C120.095 41.442 120.923 42.126 122.435 42.126C122.939 42.126 123.353 42.072 123.731 41.982V40.434C122.507 40.506 122.003 40.38 122.003 39.336V34.35H123.731Z" fill="#F4F7FA"/>
</svg>
